HIERARCHY
ROOT Hips
{
  OFFSET 44.2071 94.0193 122.101
  CHANNELS 6 Xposition Yposition Zposition Zrotation Xrotation Yrotation
  JOINT LeftUpLeg
  {
    OFFSET 8.91 -6.27 -2.145
    CHANNELS 6 Xposition Yposition Zposition Zrotation Xrotation Yrotation
    JOINT LeftUpLegRoll
    {
      OFFSET 0 -22.7323 0
      CHANNELS 6 Xposition Yposition Zposition Zrotation Xrotation Yrotation
      JOINT LeftLeg
      {
        OFFSET 0 -22.1464 0
        CHANNELS 6 Xposition Yposition Zposition Zrotation Xrotation Yrotation
        JOINT LeftLegRoll
        {
          OFFSET 0 -22.0919 0
          CHANNELS 6 Xposition Yposition Zposition Zrotation Xrotation Yrotation
          JOINT LeftFoot
          {
            OFFSET 0 -18.609 0
            CHANNELS 6 Xposition Yposition Zposition Zrotation Xrotation Yrotation
            JOINT LeftToeBase
            {
              OFFSET 0 -6.26232 12.9547
              CHANNELS 6 Xposition Yposition Zposition Zrotation Xrotation Yrotation
              End Site
              {
                OFFSET 0 0 5.96686
              }
            }
          }
        }
      }
    }
  }
  JOINT RightUpLeg
  {
    OFFSET -8.91 -6.27 -2.145
    CHANNELS 6 Xposition Yposition Zposition Zrotation Xrotation Yrotation
    JOINT RightUpLegRoll
    {
      OFFSET 0 -22.7323 0
      CHANNELS 6 Xposition Yposition Zposition Zrotation Xrotation Yrotation
      JOINT RightLeg
      {
        OFFSET 0 -22.1464 0
        CHANNELS 6 Xposition Yposition Zposition Zrotation Xrotation Yrotation
        JOINT RightLegRoll
        {
          OFFSET 0 -22.0919 0
          CHANNELS 6 Xposition Yposition Zposition Zrotation Xrotation Yrotation
          JOINT RightFoot
          {
            OFFSET 0 -18.609 0
            CHANNELS 6 Xposition Yposition Zposition Zrotation Xrotation Yrotation
            JOINT RightToeBase
            {
              OFFSET 0 -6.26232 12.9547
              CHANNELS 6 Xposition Yposition Zposition Zrotation Xrotation Yrotation
              End Site
              {
                OFFSET 0 0.000942417 5.96686
              }
            }
          }
        }
      }
    }
  }
  JOINT Spine
  {
    OFFSET 0 7.43174 -2.06162
    CHANNELS 6 Xposition Yposition Zposition Zrotation Xrotation Yrotation
    JOINT Spine1
    {
      OFFSET -1.68772e-005 12.1899 -1.41951
      CHANNELS 6 Xposition Yposition Zposition Zrotation Xrotation Yrotation
      JOINT Spine2
      {
        OFFSET 0 11.8846 -1.0903
        CHANNELS 6 Xposition Yposition Zposition Zrotation Xrotation Yrotation
        JOINT Spine3
        {
          OFFSET 1.84329e-005 10.5137 1.04001
          CHANNELS 6 Xposition Yposition Zposition Zrotation Xrotation Yrotation
          JOINT Neck
          {
            OFFSET 0 11.5156 1.94702
            CHANNELS 6 Xposition Yposition Zposition Zrotation Xrotation Yrotation
            JOINT Head
            {
              OFFSET -1.26215e-005 11.0733 1.65432
              CHANNELS 6 Xposition Yposition Zposition Zrotation Xrotation Yrotation
              End Site
              {
                OFFSET 0 17.7047 0
              }
            }
          }
          JOINT LeftShoulder
          {
            OFFSET 7 4.56855 2.0674
            CHANNELS 6 Xposition Yposition Zposition Zrotation Xrotation Yrotation
            JOINT LeftArm
            {
              OFFSET 10.7073 0 0
              CHANNELS 6 Xposition Yposition Zposition Zrotation Xrotation Yrotation
              JOINT LeftArmRoll
              {
                OFFSET 15.2612 0 0
                CHANNELS 6 Xposition Yposition Zposition Zrotation Xrotation Yrotation
                JOINT LeftForeArm
                {
                  OFFSET 12.0443 0 0
                  CHANNELS 6 Xposition Yposition Zposition Zrotation Xrotation Yrotation
                  JOINT LeftForeArmRoll
                  {
                    OFFSET 16.3277 0 0
                    CHANNELS 6 Xposition Yposition Zposition Zrotation Xrotation Yrotation
                    JOINT LeftHand
                    {
                      OFFSET 10.3694 0 0
                      CHANNELS 6 Xposition Yposition Zposition Zrotation Xrotation Yrotation
                      JOINT LeftHandThumb1
                      {
                        OFFSET 4.34876 -0.798502 4.28243
                        CHANNELS 6 Xposition Yposition Zposition Zrotation Xrotation Yrotation
                        JOINT LeftHandThumb2
                        {
                          OFFSET 2.51259 -0.536099 0.707454
                          CHANNELS 6 Xposition Yposition Zposition Zrotation Xrotation Yrotation
                          JOINT LeftHandThumb3
                          {
                            OFFSET 2.54314 0 0
                            CHANNELS 6 Xposition Yposition Zposition Zrotation Xrotation Yrotation
                            JOINT LeftHandThumb4
                            {
                              OFFSET 2.66675 0 0
                              CHANNELS 6 Xposition Yposition Zposition Zrotation Xrotation Yrotation
                              End Site
                              {
                                OFFSET 0 0 0
                              }
                            }
                          }
                        }
                      }
                      JOINT LeftHandIndex1
                      {
                        OFFSET 8.82198 0.199729 3.47167
                        CHANNELS 6 Xposition Yposition Zposition Zrotation Xrotation Yrotation
                        JOINT LeftHandIndex2
                        {
                          OFFSET 4.22532 0 -0.000262656
                          CHANNELS 6 Xposition Yposition Zposition Zrotation Xrotation Yrotation
                          JOINT LeftHandIndex3
                          {
                            OFFSET 2.65394 0 -0.00016516
                            CHANNELS 6 Xposition Yposition Zposition Zrotation Xrotation Yrotation
                            JOINT LeftHandIndex4
                            {
                              OFFSET 1.95822 0 -0.00012217
                              CHANNELS 6 Xposition Yposition Zposition Zrotation Xrotation Yrotation
                              End Site
                              {
                                OFFSET 0 0 0
                              }
                            }
                          }
                        }
                      }
                      JOINT LeftHandMiddle1
                      {
                        OFFSET 8.80988 0.50089 1.30468
                        CHANNELS 6 Xposition Yposition Zposition Zrotation Xrotation Yrotation
                        JOINT LeftHandMiddle2
                        {
                          OFFSET 4.86325 0 0
                          CHANNELS 6 Xposition Yposition Zposition Zrotation Xrotation Yrotation
                          JOINT LeftHandMiddle3
                          {
                            OFFSET 2.76524 0 0
                            CHANNELS 6 Xposition Yposition Zposition Zrotation Xrotation Yrotation
                            JOINT LeftHandMiddle4
                            {
                              OFFSET 2.00563 0 0
                              CHANNELS 6 Xposition Yposition Zposition Zrotation Xrotation Yrotation
                              End Site
                              {
                                OFFSET 0 0 0
                              }
                            }
                          }
                        }
                      }
                      JOINT LeftHandRing1
                      {
                        OFFSET 8.89376 0.37992 -0.793159
                        CHANNELS 6 Xposition Yposition Zposition Zrotation Xrotation Yrotation
                        JOINT LeftHandRing2
                        {
                          OFFSET 4.53776 0 -0.000282138
                          CHANNELS 6 Xposition Yposition Zposition Zrotation Xrotation Yrotation
                          JOINT LeftHandRing3
                          {
                            OFFSET 2.30453 0 -0.000143448
                            CHANNELS 6 Xposition Yposition Zposition Zrotation Xrotation Yrotation
                            JOINT LeftHandRing4
                            {
                              OFFSET 1.92335 0 -0.00012044
                              CHANNELS 6 Xposition Yposition Zposition Zrotation Xrotation Yrotation
                              End Site
                              {
                                OFFSET 0 0 0
                              }
                            }
                          }
                        }
                      }
                      JOINT LeftHandPinky1
                      {
                        OFFSET 8.88227 -0.313027 -2.49036
                        CHANNELS 6 Xposition Yposition Zposition Zrotation Xrotation Yrotation
                        JOINT LeftHandPinky2
                        {
                          OFFSET 3.0441 0 0
                          CHANNELS 6 Xposition Yposition Zposition Zrotation Xrotation Yrotation
                          JOINT LeftHandPinky3
                          {
                            OFFSET 1.9745 0 0
                            CHANNELS 6 Xposition Yposition Zposition Zrotation Xrotation Yrotation
                            JOINT LeftHandPinky4
                            {
                              OFFSET 1.66661 0 0
                              CHANNELS 6 Xposition Yposition Zposition Zrotation Xrotation Yrotation
                              End Site
                              {
                                OFFSET 0 0 0
                              }
                            }
                          }
                        }
                      }
                    }
                  }
                }
              }
            }
          }
          JOINT RightShoulder
          {
            OFFSET -7 4.56855 2.0673
            CHANNELS 6 Xposition Yposition Zposition Zrotation Xrotation Yrotation
            JOINT RightArm
            {
              OFFSET -10.7073 0 0
              CHANNELS 6 Xposition Yposition Zposition Zrotation Xrotation Yrotation
              JOINT RightArmRoll
              {
                OFFSET -15.2612 0 0
                CHANNELS 6 Xposition Yposition Zposition Zrotation Xrotation Yrotation
                JOINT RightForeArm
                {
                  OFFSET -12.0444 0 0
                  CHANNELS 6 Xposition Yposition Zposition Zrotation Xrotation Yrotation
                  JOINT RightForeArmRoll
                  {
                    OFFSET -16.3276 0 0
                    CHANNELS 6 Xposition Yposition Zposition Zrotation Xrotation Yrotation
                    JOINT RightHand
                    {
                      OFFSET -10.3694 0 0
                      CHANNELS 6 Xposition Yposition Zposition Zrotation Xrotation Yrotation
                      JOINT RightHandThumb1
                      {
                        OFFSET -4.34838 -0.798501 4.28282
                        CHANNELS 6 Xposition Yposition Zposition Zrotation Xrotation Yrotation
                        JOINT RightHandThumb2
                        {
                          OFFSET -2.51253 -0.536099 0.707679
                          CHANNELS 6 Xposition Yposition Zposition Zrotation Xrotation Yrotation
                          JOINT RightHandThumb3
                          {
                            OFFSET -2.54159 0 0.0888232
                            CHANNELS 6 Xposition Yposition Zposition Zrotation Xrotation Yrotation
                            JOINT RightHandThumb4
                            {
                              OFFSET -2.66512 0 0.0931403
                              CHANNELS 6 Xposition Yposition Zposition Zrotation Xrotation Yrotation
                              End Site
                              {
                                OFFSET 0 0 0
                              }
                            }
                          }
                        }
                      }
                      JOINT RightHandIndex1
                      {
                        OFFSET -8.82167 0.199732 3.47246
                        CHANNELS 6 Xposition Yposition Zposition Zrotation Xrotation Yrotation
                        JOINT RightHandIndex2
                        {
                          OFFSET -4.22532 0 0.0001146
                          CHANNELS 6 Xposition Yposition Zposition Zrotation Xrotation Yrotation
                          JOINT RightHandIndex3
                          {
                            OFFSET -2.65394 0 7.19601e-005
                            CHANNELS 6 Xposition Yposition Zposition Zrotation Xrotation Yrotation
                            JOINT RightHandIndex4
                            {
                              OFFSET -1.95822 0 5.30956e-005
                              CHANNELS 6 Xposition Yposition Zposition Zrotation Xrotation Yrotation
                              End Site
                              {
                                OFFSET 0 0 0
                              }
                            }
                          }
                        }
                      }
                      JOINT RightHandMiddle1
                      {
                        OFFSET -8.80976 0.500893 1.30547
                        CHANNELS 6 Xposition Yposition Zposition Zrotation Xrotation Yrotation
                        JOINT RightHandMiddle2
                        {
                          OFFSET -4.86325 0 0.000131881
                          CHANNELS 6 Xposition Yposition Zposition Zrotation Xrotation Yrotation
                          JOINT RightHandMiddle3
                          {
                            OFFSET -2.76524 0 7.49854e-005
                            CHANNELS 6 Xposition Yposition Zposition Zrotation Xrotation Yrotation
                            JOINT RightHandMiddle4
                            {
                              OFFSET -2.00563 0 5.43888e-005
                              CHANNELS 6 Xposition Yposition Zposition Zrotation Xrotation Yrotation
                              End Site
                              {
                                OFFSET 0 0 0
                              }
                            }
                          }
                        }
                      }
                      JOINT RightHandRing1
                      {
                        OFFSET -8.89383 0.379922 -0.792364
                        CHANNELS 6 Xposition Yposition Zposition Zrotation Xrotation Yrotation
                        JOINT RightHandRing2
                        {
                          OFFSET -4.53776 0 0.000123049
                          CHANNELS 6 Xposition Yposition Zposition Zrotation Xrotation Yrotation
                          JOINT RightHandRing3
                          {
                            OFFSET -2.30453 0 6.24859e-005
                            CHANNELS 6 Xposition Yposition Zposition Zrotation Xrotation Yrotation
                            JOINT RightHandRing4
                            {
                              OFFSET -1.92335 0 5.21537e-005
                              CHANNELS 6 Xposition Yposition Zposition Zrotation Xrotation Yrotation
                              End Site
                              {
                                OFFSET 0 0 0
                              }
                            }
                          }
                        }
                      }
                      JOINT RightHandPinky1
                      {
                        OFFSET -8.8825 -0.313025 -2.48956
                        CHANNELS 6 Xposition Yposition Zposition Zrotation Xrotation Yrotation
                        JOINT RightHandPinky2
                        {
                          OFFSET -3.0478 0 8.26466e-005
                          CHANNELS 6 Xposition Yposition Zposition Zrotation Xrotation Yrotation
                          JOINT RightHandPinky3
                          {
                            OFFSET -1.9769 0 5.36145e-005
                            CHANNELS 6 Xposition Yposition Zposition Zrotation Xrotation Yrotation
                            JOINT RightHandPinky4
                            {
                              OFFSET -1.66864 0 4.5245e-005
                              CHANNELS 6 Xposition Yposition Zposition Zrotation Xrotation Yrotation
                              End Site
                              {
                                OFFSET 0 0 0
                              }
                            }
                          }
                        }
                      }
                    }
                  }
                }
              }
            }
          }
        }
      }
    }
  }
}
MOTION
Frames:	2
Frame Time:	0.0333333
-29.2774 98.2406 31.6459 -0.373994 1.06017 -3.16195 8.91 -6.27 -2.145 2.84632 -10.2427 1.1525 -8.88178e-015 -22.7323 -4.71169e-007 4.72871e-019 5.76001e-017 -0.940723 -1.24345e-014 -22.1464 5.17666e-008 -1.09315e-008 24.2251 1.20665 -8.88178e-015 -22.0919 1.36431e-008 1.72317e-018 -1.09945e-016 1.79584 -1.42109e-014 -18.609 1.69696e-008 -3.2503 -12.8494 -0.366093 5.32907e-015 -6.26232 12.9547 -4.29059e-007 -1.04696e-007 -7.84018e-016 -8.91 -6.27 -2.145 -0.450486 -11.1026 1.53434 -2.71633e-006 -22.7323 -4.51374e-007 4.30837e-018 -1.73816e-016 2.8398 -4.24549e-013 -22.1464 1.4554e-008 -1.91188e-007 23.8784 2.36751 9.19562e-007 -22.0919 4.09714e-008 6.64886e-018 -2.15891e-016 3.528 -3.606e-013 -18.609 -7.98564e-010 0.22423 -12.002 0.0190052 -6.4416e-011 -6.26232 12.9547 0.00291259 9.13911e-008 -4.6458e-012 2.32301e-006 7.43174 -2.06162 0.125036 0.0939477 0.230446 -1.68772e-005 12.1899 -1.41951 0.161038 0.155027 0.371023 -3.87879e-006 11.8846 -1.0903 0.161034 0.155112 0.37099 1.84329e-005 10.5137 1.04001 0.165276 0.155195 0.370226 2.32301e-006 11.5156 1.94702 -0.985858 11.8251 -1.51309 -1.26215e-005 11.0733 1.65432 -1.96298 10.9529 -2.08199 7 4.56855 2.0674 -8.93629 0 2.65276 10.7073 -5.08749e-012 -5.32907e-015 -64.9002 14.3945 -9.58882 15.2612 3.95062e-012 1.16365e-008 -0 31.9945 0 12.0443 -1.25056e-012 2.87898e-009 3.47534 10.2777 -18.7977 16.3277 2.84217e-012 -1.18649e-008 -0 16.2617 0 10.3694 3.12639e-013 2.29894e-008 -6.62432 0.286926 -4.95482 4.34876 -0.798502 4.28243 -3.74468 -0.100483 -5.34865 2.51259 -0.536099 0.707454 0.688062 0.0240271 1.99986 2.54314 9.9476e-013 9.34198e-006 1.69587 0 0 2.66675 -1.27898e-012 -8.21025e-006 -0 0 0 8.82198 0.199729 3.47167 -15.9672 -0.55038 0.473945 4.22532 4.83737e-011 -0.000262656 -15.9778 0 0 2.65394 2.98712e-011 -0.00016516 -15.9793 0 0 1.95822 2.2311e-011 -0.00012217 -0 0 0 8.80988 0.50089 1.30468 -27.9887 -0.938892 2.15606 4.86325 1.10845e-012 6.11217e-012 -28.0057 0 0 2.76524 3.69482e-013 -1.91784e-007 -28.003 0 0 2.00563 -8.52651e-013 -1.13863e-006 -0 0 0 8.89376 0.37992 -0.793159 -39.9859 -1.28551 1.72831 4.53776 8.2423e-013 -0.000282138 -40.002 0 0 2.30453 0 -0.000143448 -40.0006 0 0 1.92335 -4.26326e-013 -0.00012044 -0 0 0 8.88227 -0.313027 -2.49036 -47.9657 -1.48576 1.15903 3.0441 -2.04636e-012 1.33227e-015 -47.9704 0 0 1.9745 2.84217e-013 -1.43329e-007 -47.9933 0 0 1.66661 1.64846e-012 7.91347e-007 -0 0 0 -7 4.56855 2.0673 8.88623 -1.1563e-016 -0.257047 -10.7073 5.20117e-012 2.04281e-014 64.4151 18.6176 13.124 -15.2612 -6.33804e-012 1.86659e-008 3.47971e-015 36.4962 3.47971e-015 -12.0444 -8.46967e-012 -7.98782e-009 -3.19929 9.73412 18.2937 -16.3276 -1.11982e-011 -2.36264e-008 -6.71985e-006 15.359 -2.80911e-006 -10.3694 -8.52651e-014 1.64166e-008 14.6896 0.604345 4.68605 -4.34838 -0.798501 4.28282 3.74491 -0.100338 5.34924 -2.51253 -0.536099 0.707679 -0.685636 0.0239424 -1.99986 -2.54159 2.76827e-011 0.0888232 -1.60632 0 0 -2.66512 1.86731e-011 0.0931403 0 0 -0 -8.82167 0.199732 3.47246 15.9669 -0.550369 -0.47389 -4.22532 2.47269e-012 0.0001146 15.9778 0 0 -2.65394 1.39266e-012 7.19601e-005 15.9793 0 0 -1.95822 1.36424e-012 5.30956e-005 0 0 -0 -8.80976 0.500893 1.30547 27.9567 -0.937906 -0.160277 -4.86325 -1.3074e-012 0.000131881 27.9586 0 0 -2.76524 1.76215e-012 7.49854e-005 27.9429 0 0 -2.00563 0 5.43888e-005 0 0 -0 -8.89383 0.379922 -0.792364 39.9542 -1.28466 0.26739 -4.53776 4.09273e-012 0.000123049 39.9415 0 0 -2.30453 4.12115e-012 6.24859e-005 39.9253 0 0 -1.92335 7.38964e-013 5.21537e-005 0 0 -0 -8.8825 -0.313025 -2.48956 47.914 -1.48455 0.839267 -3.0478 -6.65921e-011 8.26466e-005 47.8656 0 0 -1.9769 -3.85683e-011 5.36145e-005 47.8954 0 0 -1.66864 -3.54419e-011 4.5245e-005 0 0 -0 
-29.246 98.2279 31.4667 -0.317043 1.27312 -3.09733 8.91 -6.27 -2.145 2.75494 -10.627 1.06128 -8.88178e-015 -22.7323 -4.71169e-007 5.38201e-019 6.14501e-017 -1.00361 -1.24345e-014 -22.1464 5.17666e-008 4.38047e-008 24.265 1.24733 -8.88178e-015 -22.0919 1.36431e-008 1.84175e-018 -1.13665e-016 1.85661 -1.42109e-014 -18.609 1.69696e-008 -3.24768 -12.7237 -0.36219 5.32907e-015 -6.26232 12.9547 -4.29059e-007 -1.04696e-007 -7.84018e-016 -8.91 -6.27 -2.145 -0.519041 -11.4953 1.48946 -2.71633e-006 -22.7323 -4.51374e-007 4.29711e-018 -1.73589e-016 2.83608 -4.24549e-013 -22.1464 1.4554e-008 -2.13709e-007 23.974 2.36146 9.19562e-007 -22.0919 4.09714e-008 6.6146e-018 -2.15335e-016 3.51889 -3.606e-013 -18.609 -7.98564e-010 0.263281 -11.9248 0.0229325 -6.4416e-011 -6.26232 12.9547 0.00291259 9.13911e-008 -4.6458e-012 2.32301e-006 7.43174 -2.06162 0.118874 0.108716 0.210745 -1.68772e-005 12.1899 -1.41951 0.153472 0.179273 0.338789 -3.87879e-006 11.8846 -1.0903 0.153468 0.179346 0.338752 1.84329e-005 10.5137 1.04001 0.159773 0.179417 0.337628 2.32301e-006 11.5156 1.94702 -1.0475 11.8143 -1.4805 -1.26215e-005 11.0733 1.65432 -2.00787 10.9398 -2.05232 7 4.56855 2.0674 -8.87213 0 2.6737 10.7073 -5.08749e-012 -5.32907e-015 -64.333 13.6137 -10.4411 15.2612 3.95062e-012 1.16365e-008 -0 30.7613 0 12.0443 -1.25056e-012 2.87898e-009 3.32919 10.3564 -17.9307 16.3277 2.84217e-012 -1.18649e-008 -0 16.3058 0 10.3694 3.12639e-013 2.29894e-008 -6.44564 0.250535 -4.44712 4.34876 -0.798502 4.28243 -3.74468 -0.100483 -5.34865 2.51259 -0.536099 0.707454 0.688062 0.0240271 1.99986 2.54314 9.9476e-013 9.34198e-006 1.69587 0 0 2.66675 -1.27898e-012 -8.21025e-006 -0 0 0 8.82198 0.199729 3.47167 -15.9672 -0.55038 0.473945 4.22532 4.83737e-011 -0.000262656 -15.9778 0 0 2.65394 2.98712e-011 -0.00016516 -15.9793 0 0 1.95822 2.2311e-011 -0.00012217 -0 0 0 8.80988 0.50089 1.30468 -27.9887 -0.938892 2.15606 4.86325 1.10845e-012 6.11217e-012 -28.0057 0 0 2.76524 3.69482e-013 -1.91784e-007 -28.003 0 0 2.00563 -8.52651e-013 -1.13863e-006 -0 0 0 8.89376 0.37992 -0.793159 -39.9859 -1.28551 1.72831 4.53776 8.2423e-013 -0.000282138 -40.002 0 0 2.30453 0 -0.000143448 -40.0006 0 0 1.92335 -4.26326e-013 -0.00012044 -0 0 0 8.88227 -0.313027 -2.49036 -47.9657 -1.48576 1.15903 3.0441 -2.04636e-012 1.33227e-015 -47.9704 0 0 1.9745 2.84217e-013 -1.43329e-007 -47.9933 0 0 1.66661 1.64846e-012 7.91347e-007 -0 0 0 -7 4.56855 2.0673 8.86745 -1.14352e-016 -0.249474 -10.7073 5.20117e-012 2.04281e-014 63.7113 18.128 14.1181 -15.2612 -6.33804e-012 1.86659e-008 3.41951e-015 35.715 3.41951e-015 -12.0444 -8.46967e-012 -7.98782e-009 -3.08815 9.75132 17.6684 -16.3276 -1.11982e-011 -2.36264e-008 -6.72118e-006 15.3329 -2.80876e-006 -10.3694 -8.52651e-014 1.64166e-008 14.5571 0.569747 4.45867 -4.34838 -0.798501 4.28282 3.74491 -0.100338 5.34924 -2.51253 -0.536099 0.707679 -0.685636 0.0239424 -1.99986 -2.54159 2.76827e-011 0.0888232 -1.60632 0 0 -2.66512 1.86731e-011 0.0931403 0 0 -0 -8.82167 0.199732 3.47246 15.9669 -0.550369 -0.47389 -4.22532 2.47269e-012 0.0001146 15.9778 0 0 -2.65394 1.39266e-012 7.19601e-005 15.9793 0 0 -1.95822 1.36424e-012 5.30956e-005 0 0 -0 -8.80976 0.500893 1.30547 27.9567 -0.937906 -0.160277 -4.86325 -1.3074e-012 0.000131881 27.9586 0 0 -2.76524 1.76215e-012 7.49854e-005 27.9429 0 0 -2.00563 0 5.43888e-005 0 0 -0 -8.89383 0.379922 -0.792364 39.9542 -1.28466 0.26739 -4.53776 4.09273e-012 0.000123049 39.9415 0 0 -2.30453 4.12115e-012 6.24859e-005 39.9253 0 0 -1.92335 7.38964e-013 5.21537e-005 0 0 -0 -8.8825 -0.313025 -2.48956 47.914 -1.48455 0.839267 -3.0478 -6.65921e-011 8.26466e-005 47.8656 0 0 -1.9769 -3.85683e-011 5.36145e-005 47.8954 0 0 -1.66864 -3.54419e-011 4.5245e-005 0 0 -0 
